<?xml version="1.0" standalone="no"?>
<!DOCTYPE svg PUBLIC "-//W3C//DTD SVG 20010904//EN"
 "http://www.w3.org/TR/2001/REC-SVG-20010904/DTD/svg10.dtd">
<svg version="1.0" xmlns="http://www.w3.org/2000/svg"
 width="500.000000pt" height="500.000000pt" viewBox="0 0 500.000000 500.000000"
 preserveAspectRatio="xMidYMid meet">
<metadata>
Created by potrace 1.11, written by Peter Selinger 2001-2013
</metadata>
<g transform="translate(0.000000,500.000000) scale(0.100000,-0.100000)"
fill="#000000" stroke="none">
<path d="M1772 4973 c-50 -72 -115 -212 -167 -358 -45 -127 -62 -192 -81 -315
-24 -149 -24 -163 -14 -364 9 -179 15 -227 41 -330 17 -67 35 -125 39 -129 8
-9 70 18 70 31 0 4 -14 59 -31 122 -28 107 -31 131 -36 335 -4 189 -2 238 15
345 33 203 149 504 253 652 11 14 19 29 19 32 0 3 -20 6 -44 6 -37 0 -48 -5
-64 -27z"/>
<path d="M3147 4953 c-18 -18 -5 -54 28 -76 60 -41 88 -82 167 -253 13 -27 33
-25 54 4 13 19 13 28 3 60 -39 122 -159 272 -217 272 -16 0 -32 -3 -35 -7z"/>
<path d="M1343 4743 c-17 -24 -63 -118 -63 -129 0 -2 17 -4 38 -4 39 0 72 23
72 49 0 6 9 25 21 40 17 23 19 32 10 50 -16 30 -53 27 -78 -6z"/>
<path d="M3645 4563 c8 -35 71 -160 96 -192 34 -43 103 -298 114 -421 10 -113
9 -112 51 -93 29 15 34 21 34 52 -2 141 -75 413 -141 523 -54 90 -115 158
-141 158 -17 0 -19 -4 -13 -27z"/>
<path d="M3621 4565 c0 -5 6 -21 14 -35 8 -14 14 -20 14 -15 0 6 -6 21 -14 35
-8 14 -14 21 -14 15z"/>
<path d="M3432 4536 c-6 -13 -15 -51 -21 -83 -12 -68 -11 -342 1 -349 17 -11
68 40 75 75 7 37 -23 346 -36 369 -5 9 -11 6 -19 -12z"/>
<path d="M1305 4525 c-5 -2 -27 -6 -47 -10 -51 -8 -48 -20 3 -19 27 1 45 7 51
18 5 9 8 16 6 15 -2 0 -7 -2 -13 -4z"/>
<path d="M1254 4481 c3 -4 -6 -6 -19 -3 -21 4 -28 -3 -52 -53 -21 -44 -25 -59
-15 -63 8 -2 22 -17 31 -33 l18 -29 37 87 c20 49 36 91 36 96 0 4 -9 7 -21 7
-11 0 -18 -4 -15 -9z"/>
<path d="M1108 4233 c-14 -32 -36 -116 -49 -188 -20 -111 -24 -160 -22 -335 0
-113 5 -234 9 -270 l9 -65 39 -3 39 -3 -7 83 c-4 45 -12 102 -18 126 -13 51
-4 311 12 381 14 58 30 303 21 319 -5 9 -17 -7 -33 -45z"/>
<path d="M836 4116 c-14 -25 -26 -50 -26 -56 0 -6 -7 -21 -14 -33 -21 -32 -86
-221 -102 -297 -16 -76 -17 -91 -3 -67 14 24 32 21 24 -5 -6 -17 -4 -20 9 -15
9 4 16 5 16 4 -1 -7 -43 -133 -64 -192 -22 -60 -26 -86 -26 -180 0 -60 7 -149
15 -197 18 -114 126 -440 182 -552 80 -161 213 -333 271 -351 47 -14 94 64 78
129 -6 24 -69 70 -80 59 -3 -4 -6 -24 -6 -45 0 -22 -4 -37 -9 -34 -18 12 -149
213 -186 286 -55 108 -153 416 -172 535 -23 152 -13 446 21 580 35 139 92 295
137 375 35 60 29 100 -15 100 -18 0 -31 -12 -50 -44z"/>
<path d="M2418 4150 c-25 -15 -58 -74 -58 -105 l0 -27 -27 17 c-26 17 -27 17
-49 -8 -12 -14 -25 -44 -29 -66 -6 -36 -9 -40 -26 -31 -30 17 -69 -28 -69 -79
0 -30 -5 -41 -19 -46 -26 -8 -45 -58 -38 -100 5 -32 4 -35 -19 -35 -14 0 -36
-12 -50 -27 -22 -23 -25 -35 -21 -68 4 -26 1 -47 -9 -59 -22 -30 -18 -112 7
-147 11 -16 27 -29 35 -29 11 0 14 -25 14 -138 0 -93 5 -153 14 -183 29 -89
47 -130 71 -167 l25 -38 -20 -42 c-11 -22 -20 -46 -20 -52 0 -14 -217 -229
-287 -285 -28 -22 -67 -62 -88 -90 -34 -46 -37 -54 -33 -105 5 -73 40 -142
106 -212 69 -72 122 -95 268 -113 64 -8 122 -19 129 -25 8 -7 35 -20 62 -30
35 -13 49 -24 54 -44 5 -19 4 -26 -7 -26 -26 0 -123 -58 -196 -117 -40 -32
-92 -72 -115 -88 -32 -23 -43 -37 -43 -57 0 -34 41 -57 150 -84 41 -10 87 -26
102 -36 32 -22 88 -24 88 -4 0 8 -11 17 -25 20 -14 4 -25 13 -25 21 0 8 -8 16
-17 16 -10 1 -34 3 -53 4 -41 2 -135 30 -169 49 l-24 13 37 29 c21 16 72 56
114 90 43 34 102 74 132 89 l54 27 18 -22 c10 -12 18 -28 18 -36 0 -8 7 -14
15 -14 19 0 19 23 1 58 -8 15 -17 44 -21 65 -6 32 -5 37 11 37 33 0 120 57
168 110 31 36 51 70 63 109 31 106 12 298 -30 295 -10 -1 -21 12 -28 33 -12
38 -36 40 -31 2 1 -13 5 -47 8 -75 8 -67 -7 -108 -59 -166 -52 -57 -83 -69
-96 -36 -15 41 -29 210 -23 302 4 70 2 88 -9 84 -7 -2 -20 -25 -28 -49 -18
-51 -83 -132 -137 -169 -66 -46 -77 -60 -70 -92 30 -149 286 -191 391 -63 46
57 65 103 66 162 l1 48 14 -34 c23 -52 20 -175 -5 -242 -36 -95 -151 -189
-231 -189 -36 0 -109 35 -117 56 -4 10 -14 13 -37 9 -47 -9 -191 12 -244 35
-52 23 -122 86 -156 140 -29 45 -50 122 -42 153 8 35 52 86 136 157 188 162
290 281 290 341 0 26 15 24 34 -5 45 -69 172 -117 315 -119 175 -2 308 80 359
219 33 92 44 183 40 317 -3 98 -8 131 -25 170 l-22 47 31 0 c57 0 77 62 34
104 -23 24 -23 24 -4 40 25 22 20 47 -14 66 -21 11 -30 12 -39 3 -9 -9 -6 -15
14 -24 31 -14 26 -29 -8 -29 -27 0 -55 34 -55 67 0 20 2 22 20 11 10 -7 22
-10 25 -7 10 11 -6 38 -26 44 -16 5 -17 10 -8 27 26 48 -44 118 -97 98 -21 -8
-22 -7 -17 30 8 56 -3 88 -36 104 -25 13 -31 13 -52 -1 -14 -9 -19 -10 -11 -3
17 19 15 71 -4 99 -18 25 -79 55 -94 46 -4 -3 -14 11 -20 30 -16 50 -60 69
-102 45z m60 -32 c17 -17 15 -45 -4 -52 -33 -13 -42 -7 -39 27 2 17 3 33 4 35
3 7 29 0 39 -10z m122 -98 c21 -21 27 -55 10 -65 -15 -10 -50 14 -60 41 -6 14
-14 22 -20 19 -13 -8 -13 -52 0 -60 8 -5 7 -11 -1 -21 -10 -12 -16 -10 -39 17
-23 28 -29 30 -48 20 -18 -9 -21 -9 -16 3 6 16 52 28 60 15 10 -17 22 -9 28
21 5 25 10 30 36 30 17 0 39 -9 50 -20z m-196 -5 c3 -8 1 -15 -4 -15 -6 0 -10
7 -10 15 0 8 2 15 4 15 2 0 6 -7 10 -15z m-58 -32 c19 -26 17 -43 -6 -43 -18
0 -40 26 -40 49 0 17 32 13 46 -6z m2 -71 c40 3 42 2 42 -24 0 -25 -2 -26 -33
-21 -26 4 -38 0 -59 -22 l-27 -27 10 34 c5 18 7 47 3 63 -5 28 -5 28 8 11 11
-14 24 -18 56 -14z m132 -31 c-1 -34 -2 -35 -15 -17 -8 11 -15 33 -15 49 0 25
2 28 15 17 8 -7 15 -28 15 -49z m121 29 c19 -11 27 -50 10 -50 -5 0 -16 -3
-24 -6 -18 -7 -41 30 -33 52 6 17 20 18 47 4z m-359 -35 c9 -21 8 -28 -7 -45
-22 -24 -34 -25 -41 -5 -7 18 14 75 27 75 5 0 15 -11 21 -25z m293 -30 c12
-17 11 -25 -5 -55 -11 -20 -19 -28 -20 -18 0 9 -7 23 -15 31 -13 13 -13 16 0
21 9 3 15 20 16 43 1 21 3 29 6 18 3 -10 11 -28 18 -40z m175 18 c0 -20 -3
-24 -11 -16 -7 7 -9 19 -6 27 10 24 17 19 17 -11z m-267 -45 c-10 -19 -23 -5
-23 25 l0 32 14 -25 c7 -14 11 -28 9 -32z m-72 6 c14 -13 16 -21 8 -35 -14
-27 -25 -23 -38 12 -6 18 -11 34 -11 35 0 10 25 2 41 -12z m299 -8 c0 -7 7
-19 15 -26 25 -21 16 -40 -11 -22 -15 10 -27 62 -14 62 5 0 10 -6 10 -14z
m-407 -23 c-5 -19 -51 -58 -59 -50 -8 8 8 37 21 37 7 0 18 7 25 15 16 19 19
19 13 -2z m65 -36 c10 -11 25 -17 39 -14 14 3 23 -1 23 -8 0 -7 3 -27 6 -44 6
-31 6 -31 -36 -31 -42 0 -42 0 -38 32 4 22 -1 41 -14 58 -13 18 -16 33 -11 46
7 19 7 19 11 -1 2 -11 11 -28 20 -38z m272 -3 c0 -24 5 -53 12 -63 14 -24 3
-53 -19 -49 -27 5 -45 81 -31 128 16 51 38 42 38 -16z m-122 -27 c3 -54 2 -57
-21 -57 -22 0 -24 3 -22 48 3 92 38 99 43 9z m336 21 c8 -12 13 -25 10 -30
-10 -15 -43 -8 -54 12 -21 40 18 56 44 18z m-634 -50 c0 -9 -4 -20 -10 -23 -6
-4 -10 9 -10 32 0 28 3 34 10 23 5 -8 10 -23 10 -32z m101 15 c5 -14 7 -34 3
-42 -5 -12 -9 -7 -13 17 -9 48 -26 35 -26 -19 1 -36 -3 -45 -13 -41 -10 4 -12
15 -8 45 11 68 39 87 57 40z m462 -5 c9 -31 2 -33 -11 -3 -6 14 -8 25 -3 25 5
0 11 -10 14 -22z m-38 -17 c3 -5 1 -12 -5 -16 -5 -3 -10 1 -10 9 0 18 6 21 15
7z m91 -44 c2 -21 -21 -57 -36 -57 -9 0 3 61 15 79 9 16 18 6 21 -22z m-674
-24 c23 -21 23 -45 0 -67 -18 -15 -20 -15 -37 4 -14 16 -15 22 -5 35 10 12 10
18 0 30 -10 12 -9 15 5 15 10 0 27 -7 37 -17z m76 -3 c11 -18 9 -25 -15 -55
-15 -19 -29 -32 -32 -30 -2 3 2 11 9 20 7 8 10 30 8 50 -4 39 10 46 30 15z
m262 4 c0 -17 -22 -14 -28 4 -2 7 3 12 12 12 9 0 16 -7 16 -16z m-60 -7 c0
-23 37 -49 58 -43 10 4 24 18 31 32 8 19 16 24 29 19 9 -4 31 -12 47 -18 80
-27 191 -100 240 -159 16 -18 42 -62 58 -98 25 -55 31 -81 35 -166 8 -175 -29
-320 -103 -402 -57 -63 -163 -104 -267 -103 -79 1 -179 25 -223 54 -69 46
-144 140 -173 217 -38 99 -42 127 -42 260 0 162 6 201 32 208 10 2 30 27 45
55 28 56 92 122 138 143 40 18 95 18 95 1z m424 -64 c8 -21 -10 -41 -24 -27
-11 11 -3 44 10 44 4 0 11 -8 14 -17z m-702 -39 c21 4 26 3 14 -2 -10 -4 -24
-19 -31 -33 -13 -23 -14 -23 -20 -4 -4 11 -11 29 -17 40 -10 18 -9 18 5 7 10
-9 28 -12 49 -8z m778 12 c0 -2 -7 -6 -15 -10 -8 -3 -15 -1 -15 4 0 6 7 10 15
10 8 0 15 -2 15 -4z m-848 -53 c6 -23 -1 -45 -13 -37 -12 7 -12 54 0 54 5 0
11 -8 13 -17z m877 3 c13 -16 4 -46 -14 -46 -7 0 -18 7 -25 15 -9 11 -9 17 2
29 16 19 23 19 37 2z m-865 -91 c-4 -8 -10 -15 -14 -15 -4 0 -10 7 -14 15 -4
10 1 15 14 15 13 0 18 -5 14 -15z m266 -1140 c6 -60 14 -120 17 -132 5 -21 2
-23 -34 -23 -54 0 -118 33 -147 76 -28 41 -26 56 9 72 14 6 51 38 82 70 32 33
59 57 60 53 1 -3 7 -55 13 -116z"/>
<path d="M2595 3350 c-21 -40 -19 -93 5 -140 17 -33 25 -40 51 -40 65 0 119
51 119 112 -1 57 -50 98 -117 98 -37 0 -44 -4 -58 -30z m106 -17 c36 -21 45
-48 28 -80 -13 -23 -56 -53 -78 -53 -15 0 -41 54 -41 85 0 25 31 65 51 65 6 0
24 -8 40 -17z"/>
<path d="M2677 3313 c-13 -12 -7 -23 13 -23 11 0 20 7 20 15 0 15 -21 21 -33
8z"/>
<path d="M2277 3332 c-39 -43 -3 -163 52 -170 61 -9 121 49 121 115 0 56 -22
73 -97 73 -45 0 -64 -4 -76 -18z m53 -22 c0 -5 7 -10 15 -10 8 0 15 5 15 10 0
14 33 13 48 -2 27 -27 3 -82 -47 -108 -22 -11 -27 -10 -48 14 -25 29 -30 75
-11 94 15 15 28 16 28 2z"/>
<path d="M2347 3273 c-14 -13 -6 -23 18 -23 16 0 25 6 25 15 0 15 -31 21 -43
8z"/>
<path d="M2495 3159 c-11 -17 5 -79 20 -79 10 0 14 12 13 45 -1 44 -17 61 -33
34z"/>
<path d="M2367 3003 c-14 -14 -6 -33 38 -86 51 -63 91 -81 154 -71 66 11 150
86 151 137 0 26 -18 21 -34 -10 -8 -16 -33 -43 -55 -61 -32 -26 -52 -34 -88
-35 -43 -2 -48 1 -89 48 -24 27 -47 58 -50 67 -6 19 -16 23 -27 11z"/>
<path d="M3444 4032 c-29 -13 -32 -20 -38 -72 -14 -118 11 -240 49 -240 7 0
21 10 30 23 12 18 14 39 10 107 -9 139 -15 171 -28 163 -7 -4 -6 1 2 10 19 23
12 26 -25 9z"/>
<path d="M3905 3795 c-16 -7 -24 -14 -17 -14 7 -1 22 4 33 9 11 6 19 7 19 1 0
-5 -13 -14 -28 -19 -27 -9 -29 -15 -35 -72 -4 -35 -7 -97 -7 -139 1 -134 -32
-360 -72 -499 -11 -37 -10 -44 5 -59 49 -49 108 85 127 287 31 324 35 521 12
520 -4 -1 -20 -7 -37 -15z"/>
<path d="M1663 3411 c-30 -25 -29 -30 5 -27 19 2 28 10 30 25 4 26 -6 26 -35
2z"/>
<path d="M4097 3363 c-14 -14 -6 -53 14 -65 11 -7 29 -28 41 -46 20 -33 24
-34 73 -17 11 3 7 -1 -8 -10 -16 -9 -27 -19 -24 -22 9 -8 55 27 53 40 -3 22
-47 86 -73 107 -25 20 -63 26 -76 13z"/>
<path d="M1073 3304 c3 -4 21 -10 39 -14 l33 -8 -32 -1 c-25 -1 -33 -5 -33
-20 0 -33 49 -231 82 -331 37 -112 57 -156 93 -199 52 -61 95 -27 95 74 0 82
-16 110 -61 109 -35 -1 -36 0 -57 65 -12 36 -33 111 -46 166 -30 124 -40 151
-61 159 -21 8 -60 8 -52 0z"/>
<path d="M450 3180 c-8 -5 -16 -47 -21 -106 -5 -55 -11 -109 -14 -122 -8 -32
13 -372 30 -472 18 -114 86 -331 144 -460 64 -144 145 -264 253 -376 169 -175
302 -216 403 -123 45 41 61 88 43 122 -12 23 -55 22 -67 -2 -9 -16 -6 -19 20
-25 26 -5 30 -10 27 -33 l-3 -28 -89 3 c-115 4 -175 33 -267 128 -143 149
-240 322 -320 568 -57 173 -74 267 -89 491 -9 135 -9 176 4 262 22 142 21 149
-13 166 -16 8 -35 11 -41 7z"/>
<path d="M4232 3071 c-11 -6 -11 -23 -3 -84 12 -87 5 -159 -34 -342 -39 -179
-100 -341 -203 -533 -71 -133 -123 -202 -152 -202 -31 0 -45 -36 -25 -66 51
-78 148 26 288 307 87 175 131 299 174 489 36 162 46 297 30 393 -7 42 -11 47
-35 47 -15 0 -33 -4 -40 -9z"/>
<path d="M2937 2973 c-14 -13 -6 -23 33 -43 48 -25 235 -209 346 -341 95 -114
152 -210 160 -273 15 -108 -54 -223 -169 -281 -101 -51 -250 -71 -320 -41 -47
19 -107 92 -151 183 -21 43 -46 87 -56 98 -17 19 -54 85 -47 85 1 0 34 -30 72
-66 39 -36 82 -72 97 -80 15 -8 43 -25 63 -38 53 -36 151 -66 217 -66 49 0 63
4 83 25 34 33 33 94 -1 171 -72 164 -261 410 -333 434 -38 12 -71 9 -71 -8 0
-4 20 -13 44 -20 34 -9 55 -24 96 -72 l53 -61 5 -158 c2 -87 2 -179 -2 -204
-7 -46 -7 -46 -34 -34 -15 6 -41 22 -58 34 -17 13 -36 23 -41 23 -6 0 -52 40
-102 89 -96 94 -127 113 -137 87 -10 -27 58 -186 79 -186 7 0 29 -35 50 -78
65 -136 123 -189 222 -201 l50 -6 -3 -60 c-2 -33 -12 -84 -23 -113 -24 -67
-24 -76 2 -69 12 3 29 2 38 -3 37 -19 138 -59 166 -66 38 -9 128 -53 137 -67
4 -6 3 -19 -2 -28 -12 -22 -148 -124 -178 -133 -12 -4 -30 -18 -38 -32 -9 -13
-34 -29 -55 -35 -46 -14 -74 -42 -65 -65 6 -15 9 -15 29 3 12 12 33 24 47 28
46 14 95 43 136 82 22 21 66 57 97 81 91 69 88 117 -11 164 -31 15 -77 32
-100 38 -24 6 -60 19 -80 29 -21 11 -51 25 -68 32 -30 12 -31 14 -19 44 8 17
16 62 20 102 7 69 8 71 37 77 17 3 40 6 52 6 12 0 61 19 109 43 72 35 94 51
131 99 52 68 71 134 63 218 -6 72 -64 173 -176 305 -109 129 -294 311 -341
335 -44 23 -44 23 -53 13z m221 -541 c59 -94 102 -190 102 -227 0 -41 -33 -65
-87 -64 -89 1 -84 -10 -86 207 -2 138 1 188 9 179 6 -7 34 -49 62 -95z"/>
<path d="M4385 2367 c-61 -61 -72 -124 -74 -417 -1 -140 -6 -272 -12 -295 -50
-193 -133 -341 -269 -478 -73 -73 -101 -93 -171 -126 -46 -21 -101 -44 -122
-50 -50 -17 -66 -46 -39 -73 18 -19 22 -19 70 -4 28 8 91 35 139 60 73 38 105
63 189 148 126 129 194 235 245 385 53 153 59 203 59 469 0 259 7 298 62 344
27 23 29 29 19 48 -17 33 -57 28 -96 -11z"/>
<path d="M242 2215 c-63 -79 -20 -272 136 -622 70 -157 121 -243 241 -406 124
-170 316 -369 548 -568 178 -154 269 -211 363 -231 60 -12 63 -12 81 10 10 13
15 30 12 38 -7 18 -44 34 -76 34 -81 0 -323 185 -593 455 -274 273 -466 565
-569 865 -12 36 -29 79 -37 95 -37 73 -62 267 -37 292 6 6 9 21 7 34 -5 36
-50 38 -76 4z"/>
<path d="M2513 1598 c-44 -25 -53 -35 -53 -58 0 -23 7 -32 43 -49 23 -11 79
-30 122 -42 125 -33 125 -33 125 -16 0 10 -23 22 -72 37 -40 11 -91 26 -112
33 -21 6 -47 18 -58 27 -18 14 -16 17 37 45 54 29 72 56 38 54 -10 0 -42 -14
-70 -31z"/>
<path d="M3036 1621 c-7 -11 3 -41 14 -41 4 0 16 -17 25 -37 l18 -37 -37 -33
c-31 -29 -42 -33 -91 -33 -48 0 -55 -3 -55 -19 0 -17 6 -19 53 -17 28 2 58 4
64 5 7 0 31 17 53 37 46 42 50 65 19 127 -27 53 -50 70 -63 48z"/>
</g>
</svg>
